<?xml version="1.0" standalone="no"?>
<!DOCTYPE svg PUBLIC "-//W3C//DTD SVG 20010904//EN"
 "http://www.w3.org/TR/2001/REC-SVG-20010904/DTD/svg10.dtd">
<svg version="1.0" xmlns="http://www.w3.org/2000/svg"
 width="148.000000pt" height="148.000000pt" viewBox="0 0 148.000000 148.000000"
 preserveAspectRatio="xMidYMid meet">
<metadata>
Created by potrace 1.14, written by Peter Selinger 2001-2017
</metadata>
<g transform="translate(0.000000,148.000000) scale(0.100000,-0.100000)"
fill="#000000" stroke="none">
<path d="M600 1451 c-80 -26 -175 -81 -158 -93 9 -7 7 -8 -7 -4 -14 4 -32 -5
-57 -28 -37 -33 -48 -56 -28 -56 6 0 10 -5 10 -11 0 -8 -4 -8 -14 0 -7 6 -21
9 -30 5 -17 -7 -22 -34 -6 -34 6 0 10 5 10 10 0 6 5 10 11 10 5 0 7 -4 4 -10
-3 -5 1 -10 10 -10 9 0 14 -4 10 -10 -3 -5 -13 -6 -23 -3 -13 5 -15 3 -5 -7
17 -18 43 -5 43 22 0 19 2 20 10 8 8 -12 10 -13 10 -1 0 8 -7 22 -15 32 -14
15 -14 18 0 32 14 15 17 15 35 -1 11 -9 20 -22 20 -30 0 -7 5 -10 10 -7 17 11
11 -7 -7 -21 -17 -12 -17 -13 -1 -14 9 0 21 8 27 17 7 13 2 25 -20 51 -31 35
-32 49 -4 38 9 -3 13 -10 10 -16 -4 -6 6 -10 22 -10 15 0 23 4 17 8 -6 4 -14
18 -18 32 -7 24 -6 24 18 -5 28 -32 36 -23 11 11 -8 12 -11 24 -8 28 4 4 15
-8 26 -26 17 -30 18 -15 2 23 -4 12 2 21 24 32 17 9 31 12 31 7 0 -5 -9 -12
-21 -15 -24 -8 -21 -23 9 -43 14 -9 22 -10 22 -3 0 6 -4 11 -10 11 -5 0 -10 7
-10 15 0 23 19 18 30 -7 12 -32 13 2 1 35 -9 23 -7 25 20 29 16 3 29 1 29 -4
0 -4 -7 -8 -15 -8 -8 0 -15 -7 -15 -15 0 -8 5 -15 10 -15 6 0 10 5 10 10 0 6
5 10 10 10 6 0 10 -9 10 -21 0 -12 4 -17 11 -14 6 4 7 14 3 24 -4 9 -6 26 -5
39 0 12 0 22 -2 21 -1 0 -27 -9 -57 -18z"/>
<path d="M707 1444 c-5 -26 10 -33 19 -9 4 8 11 15 17 15 6 0 0 -11 -13 -25
-13 -14 -18 -25 -12 -25 15 0 52 36 52 50 0 6 5 10 10 10 6 0 8 -11 4 -27 -6
-22 -4 -25 10 -20 11 5 16 1 16 -14 0 -11 5 -17 10 -14 6 3 10 17 10 30 0 13
6 25 13 28 21 8 -41 26 -87 25 -38 0 -45 -4 -49 -24z m113 -4 c0 -5 -4 -10
-10 -10 -5 0 -10 5 -10 10 0 6 5 10 10 10 6 0 10 -4 10 -10z"/>
<path d="M885 1422 c14 -9 17 -55 4 -46 -6 3 -8 12 -5 20 3 8 0 11 -9 7 -22
-8 1 -46 25 -40 13 3 17 0 14 -17 -3 -12 2 -8 11 11 8 17 19 34 25 38 14 9 13
-1 -6 -36 -8 -17 -13 -33 -10 -36 2 -3 12 9 21 26 18 35 24 37 51 15 18 -15
18 -15 -5 -8 -28 7 -41 -9 -33 -40 6 -19 7 -18 13 9 6 28 7 29 14 8 4 -13 14
-23 22 -23 11 0 11 -4 3 -20 -13 -25 -2 -26 16 -2 18 23 17 32 -2 32 -8 0 -12
4 -9 10 4 6 16 4 31 -6 22 -15 23 -18 8 -29 -12 -8 -15 -18 -9 -31 4 -10 7
-22 7 -26 -3 -15 10 -8 28 15 15 18 21 20 31 10 11 -11 10 -13 -3 -13 -21 0
-31 -27 -18 -48 8 -14 9 -12 10 9 0 15 7 29 15 33 13 4 13 2 5 -14 -14 -26
-13 -30 8 -23 15 6 15 4 -2 -15 -11 -12 -17 -24 -14 -27 3 -3 13 4 23 15 10
11 24 20 31 20 8 0 11 6 7 16 -3 8 -12 13 -19 10 -7 -3 -16 0 -20 6 -5 7 -2 8
7 2 11 -6 10 -2 -2 16 -9 14 -27 31 -40 37 -13 7 -20 13 -14 13 20 0 -71 71
-129 100 -52 27 -109 42 -81 22z m45 -22 c0 -5 -5 -10 -11 -10 -5 0 -7 5 -4
10 3 6 8 10 11 10 2 0 4 -4 4 -10z"/>
<path d="M750 1400 c0 -5 5 -10 10 -10 6 0 10 5 10 10 0 6 -4 10 -10 10 -5 0
-10 -4 -10 -10z"/>
<path d="M705 1297 c-52 -29 -66 -47 -54 -69 13 -24 28 -23 37 3 7 18 10 19
21 6 18 -23 9 -58 -27 -96 -18 -18 -32 -37 -32 -41 0 -5 -46 -8 -102 -9 -57 0
-110 0 -119 0 -15 -1 -16 -39 -15 -398 2 -356 4 -402 19 -438 23 -51 52 -82
101 -107 59 -30 72 -32 216 -32 150 0 193 13 263 73 65 58 68 80 68 511 0 210
-2 384 -4 387 -3 2 -55 5 -117 5 -107 1 -112 2 -120 24 -5 12 -18 28 -29 33
-14 8 -19 20 -17 43 3 50 14 63 35 37 14 -18 19 -19 29 -7 9 11 8 19 -4 36 -8
12 -21 22 -28 22 -7 0 -23 9 -36 20 -29 25 -35 25 -85 -3z"/>
<path d="M380 1290 c0 -5 7 -10 16 -10 8 0 12 5 9 10 -3 6 -10 10 -16 10 -5 0
-9 -4 -9 -10z"/>
<path d="M350 589 c-19 -3 -26 -7 -15 -8 19 -2 19 -2 3 -15 -26 -20 -22 -26
18 -26 20 0 33 4 29 10 -3 5 -13 7 -23 4 -11 -4 -8 2 8 14 30 25 26 30 -20 21z"/>
<path d="M1164 585 c-4 -9 -19 -15 -36 -15 -16 0 -27 -4 -24 -8 4 -7 36 -9 66
-3 7 1 11 41 4 41 -3 0 -7 -7 -10 -15z"/>
<path d="M1115 523 c-19 -18 -19 -27 1 -44 13 -11 14 -9 9 14 -5 20 -3 27 7
27 22 0 29 -12 16 -27 -16 -20 -3 -27 15 -8 9 8 14 22 11 29 -8 21 -42 26 -59
9z"/>
<path d="M334 448 c17 -9 17 -10 -1 -23 -16 -12 -14 -13 20 -12 20 0 37 5 37
9 0 4 -5 8 -11 8 -8 0 -8 4 0 14 10 12 5 14 -26 14 -29 0 -33 -2 -19 -10z"/>
<path d="M1110 445 c-25 -30 27 -67 55 -39 13 14 11 43 -4 45 -3 0 -14 2 -23
4 -9 2 -22 -3 -28 -10z m50 -14 c0 -6 -4 -12 -9 -15 -13 -8 -42 4 -35 15 7 12
44 12 44 0z"/>
<path d="M1113 366 c22 -17 22 -26 0 -26 -27 0 -9 -10 25 -14 36 -4 40 1 15
20 -17 13 -17 13 0 14 34 0 16 15 -21 17 -32 2 -35 0 -19 -11z"/>
<path d="M358 333 c-30 -5 -44 -29 -27 -49 17 -21 69 9 62 36 -3 11 -6 19 -7
19 0 -1 -13 -4 -28 -6z m-8 -28 c0 -8 -4 -15 -10 -15 -5 0 -7 7 -4 15 4 8 8
15 10 15 2 0 4 -7 4 -15z m30 5 c0 -5 -5 -10 -11 -10 -5 0 -7 5 -4 10 3 6 8
10 11 10 2 0 4 -4 4 -10z"/>
<path d="M1097 304 c-3 -4 -2 -15 4 -26 13 -24 62 -21 67 5 2 10 -3 17 -12 17
-10 0 -13 -6 -9 -16 4 -12 1 -15 -13 -12 -11 2 -18 11 -18 21 2 17 -7 22 -19
11z"/>
<path d="M348 243 c5 -10 7 -24 4 -32 -2 -8 9 -4 27 10 40 30 39 39 -4 39 -31
0 -34 -2 -27 -17z"/>
<path d="M1080 240 c-14 -26 12 -39 37 -19 15 12 16 12 10 -3 -3 -10 -2 -18 3
-18 14 0 21 17 14 34 -6 15 -8 15 -31 1 -24 -16 -25 -16 -18 4 8 27 -1 27 -15
1z"/>
<path d="M390 202 c-15 -12 -21 -25 -17 -35 7 -20 38 -22 55 -5 9 9 12 9 12 0
0 -7 7 -12 15 -12 8 0 15 -4 15 -10 0 -13 -13 -13 -26 0 -8 8 -15 6 -25 -6
-12 -16 -12 -17 4 -11 13 5 17 1 17 -14 0 -11 5 -17 10 -14 6 4 8 11 5 16 -4
5 1 9 10 9 11 0 15 -7 13 -21 -4 -29 25 -47 47 -29 9 7 15 23 13 34 -2 16 -9
21 -32 19 -16 -1 -26 1 -23 4 10 9 -12 43 -28 43 -8 0 -15 6 -15 14 0 7 -6 19
-14 25 -10 9 -19 7 -36 -7z m37 -19 c4 -11 -32 -25 -41 -15 -8 8 15 33 27 29
6 -2 12 -8 14 -14z m93 -98 c-7 -8 -16 -15 -21 -15 -14 0 -11 38 4 43 20 7 31
-11 17 -28z"/>
<path d="M1048 150 c26 -24 52 -26 52 -3 0 13 -3 14 -11 6 -9 -9 -15 -8 -26 3
-8 8 -19 14 -26 14 -6 0 -1 -9 11 -20z"/>
<path d="M998 144 c-8 -7 14 -64 24 -64 4 0 8 7 8 16 0 10 6 14 15 10 22 -8
18 3 -7 25 -25 20 -32 22 -40 13z m32 -24 c0 -5 -2 -10 -4 -10 -3 0 -8 5 -11
10 -3 6 -1 10 4 10 6 0 11 -4 11 -10z"/>
<path d="M930 110 c0 -20 24 -60 36 -60 19 0 25 16 18 45 -4 18 -13 25 -30 25
-13 0 -24 -4 -24 -10z m37 -7 c-4 -3 -2 -12 4 -20 6 -7 7 -13 3 -13 -5 0 -15
9 -22 20 -10 17 -10 20 5 20 9 0 13 -3 10 -7z"/>
<path d="M550 84 c-14 -35 -13 -41 7 -48 11 -5 22 -1 30 10 16 22 16 37 1 52
-18 18 -27 15 -38 -14z m40 2 c0 -2 -3 -11 -6 -20 -9 -24 -33 -20 -27 4 4 16
33 30 33 16z"/>
<path d="M874 86 c-10 -26 1 -51 22 -54 24 -3 38 20 29 49 -7 22 -43 25 -51 5z
m39 -10 c7 -19 -18 -42 -28 -26 -8 13 1 40 14 40 5 0 11 -6 14 -14z"/>
<path d="M614 65 c-10 -40 1 -50 13 -11 6 20 7 36 2 36 -5 0 -11 -11 -15 -25z"/>
<path d="M740 75 c-7 -8 -7 -21 0 -39 10 -28 31 -34 49 -12 9 10 7 16 -5 27
-13 11 -15 10 -12 -3 1 -9 -1 -17 -7 -18 -5 0 -11 8 -13 20 -3 15 2 20 19 20
12 0 19 3 15 7 -12 12 -35 11 -46 -2z"/>
<path d="M810 56 c0 -39 7 -47 34 -36 19 6 19 7 -2 12 -15 4 -20 12 -17 27 2
11 0 23 -6 26 -5 4 -9 -10 -9 -29z"/>
<path d="M652 55 c-15 -33 -15 -36 3 -29 8 4 23 0 32 -7 15 -12 16 -12 10 4
-4 10 -7 23 -7 28 0 6 -6 7 -12 3 -9 -5 -9 -2 1 9 11 15 11 17 -1 17 -8 0 -20
-11 -26 -25z"/>
</g>
</svg>
